<svg width="36" height="31" viewBox="0 0 36 31" fill="none" xmlns="http://www.w3.org/2000/svg">
<path d="M7.78535 5.67651L13.7513 9.99163C14.0267 10.2455 14.4856 10.2455 14.7609 10.0762C15.1281 9.90702 15.2198 9.56858 15.2198 9.23013L14.1184 2.2921C14.1184 2.12288 13.9349 1.86905 13.7513 1.78444L11.9156 0.346066C11.5485 0.00762556 10.906 0.0922361 10.6306 0.430677C10.2635 0.769117 10.3553 1.36139 10.7224 1.61522L12.2828 2.79976L13.017 7.2841L9.16211 4.49196L8.79497 2.63054C8.70319 2.20749 8.24427 1.86905 7.78535 1.95366C7.32643 2.03827 6.9593 2.46132 7.05108 2.88437L7.41822 5.08424C7.51 5.42268 7.60178 5.5919 7.78535 5.67651ZM1.72762 16.1682C1.2687 15.999 0.717996 16.2528 0.534428 16.6758C0.35086 17.0989 0.626212 17.6065 1.08513 17.7758L3.37973 18.5373C3.47151 18.5373 3.56329 18.6219 3.74686 18.6219C3.83865 18.6219 4.02221 18.6219 4.114 18.5373L11.1814 15.9143C11.5485 15.7451 11.7321 15.4913 11.7321 15.1528C11.7321 14.8144 11.5485 14.476 11.1814 14.3914L4.02221 11.7684C3.83865 11.6838 3.56329 11.6838 3.37973 11.7684L1.08513 12.5299C0.626212 12.6992 0.35086 13.2068 0.534428 13.6299C0.717996 14.0529 1.2687 14.3067 1.72762 14.1375L3.65508 13.4606L8.24427 15.1528L3.65508 16.8451L1.72762 16.1682ZM14.2102 28.0136L15.2198 21.0756C15.3116 20.7371 15.1281 20.3987 14.7609 20.2295C14.3938 20.0602 14.0267 20.0602 13.7513 20.3141L7.78535 24.6292C7.60178 24.7984 7.51 24.9676 7.41822 25.1368L7.05108 27.3367C6.9593 27.7598 7.32643 28.2674 7.78535 28.2674C8.24427 28.352 8.79497 28.0136 8.79497 27.5905L9.16211 25.7291L13.017 22.937L12.2828 27.4213L10.7224 28.6059C10.3553 28.9443 10.2635 29.452 10.6306 29.7904C10.9978 30.1288 11.5485 30.2135 11.9156 29.875L13.7513 28.4366C14.0267 28.4366 14.1184 28.1828 14.2102 28.0136ZM28.1614 24.6292L22.1954 20.2295C21.5529 19.8064 20.6351 20.3141 20.7269 20.991L21.8283 27.929C21.8283 28.0982 22.0118 28.352 22.1954 28.4366L24.0311 29.875C24.3982 30.2135 25.0407 30.1288 25.3161 29.7904C25.6832 29.452 25.5914 28.8597 25.2243 28.6059L23.664 27.4213L22.9297 22.937L26.7846 25.7291L27.1517 27.5905C27.2435 28.0982 27.7024 28.352 28.1614 28.2674C28.6203 28.1828 28.9874 27.7598 28.8956 27.3367L28.5285 25.1368C28.4367 24.883 28.3449 24.7138 28.1614 24.6292ZM34.2191 14.1375C34.678 14.3067 35.2287 14.0529 35.4123 13.6299C35.5959 13.2068 35.3205 12.6992 34.8616 12.5299L32.567 11.7684C32.3834 11.6838 32.1081 11.6838 31.9245 11.7684L24.8571 14.3914C24.49 14.5606 24.3064 14.8144 24.3064 15.1528C24.3064 15.4913 24.49 15.8297 24.8571 15.9143L31.9245 18.5373C32.1081 18.6219 32.3834 18.6219 32.567 18.5373L34.8616 17.7758C35.3205 17.6065 35.5959 17.0989 35.4123 16.6758C35.2287 16.2528 34.678 15.999 34.2191 16.1682L32.2916 16.8451L27.7024 15.1528L32.2916 13.4606L34.2191 14.1375ZM21.7365 2.2921L20.7269 9.23013C20.6351 9.56858 20.8187 9.90702 21.1858 10.0762C21.4611 10.2455 21.9201 10.2455 22.1954 9.99163L28.1614 5.67651C28.3449 5.50729 28.4367 5.33807 28.5285 5.16885L28.8956 2.96898C28.9874 2.54593 28.6203 2.03827 28.1614 2.03827C27.7024 1.95366 27.1517 2.2921 27.1517 2.71515L26.7846 4.57658L22.9297 7.36871L23.664 2.88437L25.2243 1.69983C25.5914 1.36139 25.6832 0.853727 25.3161 0.515286C24.9489 0.176846 24.3982 0.0922361 24.0311 0.430677L22.1954 1.86905C21.9201 1.86905 21.8283 2.12288 21.7365 2.2921Z" fill="#0872BF"/>
</svg>
